<?xml version="1.0" encoding="UTF-8"?>
<svg width="50px" height="35px" viewBox="0 0 50 35" version="1.1" xmlns="http://www.w3.org/2000/svg" xmlns:xlink="http://www.w3.org/1999/xlink">
    <!-- Generator: Sketch 41.2 (35397) - http://www.bohemiancoding.com/sketch -->
    <title>Combined Shape</title>
    <desc>Created with Sketch.</desc>
    <defs></defs>
    <g id="Sprite" stroke="none" stroke-width="1" fill="none" fill-rule="evenodd">
        <g id="SPRITE" transform="translate(-152.000000, -217.000000)" fill="#000000">
            <g id="icons/icn_optins" transform="translate(152.000000, 217.000000)">
                <path d="M50,31.6010727 C50,33.3405813 48.5005767,34.7901718 46.828143,34.7901718 L3.17185698,34.7901718 C1.4994233,34.7901718 0,33.3405813 0,31.6010727 L0,3.30506632 C0,1.62354135 1.38408304,0.231934479 3.05651672,0.173950859 L3.11418685,0 L46.7704729,0 L46.828143,0.173950859 L47.5778547,0.173950859 L46.828143,0.173950859 C48.5582468,0.173950859 50,1.56555773 50,3.30506632 L50,31.6010727 Z M46.1361015,27.0783504 L46.1361015,7.71182141 L33.5063437,17.3950859 L46.1361015,27.0783504 Z M46.1361015,3.88490252 L3.8638985,3.88490252 C10.899654,9.21939552 17.9354095,14.5538885 24.9711649,19.9463652 C32.0069204,14.5538885 39.0426759,9.21939552 46.1361015,3.88490252 Z M46.1361015,30.9052693 L30.911188,19.366529 L26.8742791,22.4976444 L23.0103806,22.4976444 L19.0311419,19.4245126 L3.8638985,30.9052693 L46.1361015,30.9052693 Z M16.4359862,17.3950859 L3.8638985,7.71182141 L3.8638985,27.0783504 L16.4359862,17.3950859 Z" id="Combined-Shape"></path>
            </g>
        </g>
    </g>
</svg>